# xmcd CD database file
#
# Track frame offsets:
#	150
#	15997
#	35780
#	50667
#	66775
#	88232
#	109260
#	122227
#	141280
#	157642
#	175800
#
# Disc length: 2564 seconds
#
# Revision: 2
# Processed by: cddbd v1.4b41PL1 Copyright (c) Steve Scherf et al.
# Submitted via: Feurio! 1.60 - http://www.feurio.com
#
DISCID=930a020b,a00a020b
DTITLE=Foam - Big Windshield Little Mirror
DYEAR=1900
DGENRE=
TTITLE0=Head Not Love
TTITLE1=Rollercoaster
TTITLE2=If
TTITLE3=Cushion
TTITLE4=Postergirl
TTITLE5=Venus
TTITLE6=I Can Hardly Wait
TTITLE7=Hands Of You
TTITLE8=Ladybug
TTITLE9=Gather
TTITLE10=Memories
EXTD=
EXTT0=
EXTT1=
EXTT2=
EXTT3=
EXTT4=
EXTT5=
EXTT6=
EXTT7=
EXTT8=
EXTT9=
EXTT10=
PLAYORDER=
